<?xml version="1.0" standalone="no"?>
<!DOCTYPE svg PUBLIC "-//W3C//DTD SVG 20010904//EN"
 "http://www.w3.org/TR/2001/REC-SVG-20010904/DTD/svg10.dtd">
<svg version="1.0" xmlns="http://www.w3.org/2000/svg"
 width="700.000000pt" height="700.000000pt" viewBox="0 0 700.000000 700.000000"
 preserveAspectRatio="xMidYMid meet">
<metadata>
Created by potrace 1.14, written by Peter Selinger 2001-2017
</metadata>
<g transform="translate(0.000000,700.000000) scale(0.100000,-0.100000)"
fill="#000000" stroke="none">
<path d="M1522 6415 c-69 -62 -102 -130 -98 -203 5 -97 61 -177 156 -224 l45
-22 1425 -2 c784 -1 1455 -4 1492 -7 202 -18 323 -45 444 -101 235 -109 436
-307 540 -531 34 -73 79 -216 89 -283 13 -82 13 -289 0 -360 -40 -222 -158
-446 -319 -608 -98 -98 -193 -161 -340 -226 -61 -26 -133 -62 -161 -79 -53
-32 -116 -103 -126 -142 -13 -47 1 -147 26 -197 23 -45 179 -260 244 -336 14
-16 37 -45 51 -64 14 -18 124 -158 245 -310 324 -408 388 -490 410 -525 41
-65 168 -226 198 -252 114 -95 269 -100 367 -10 66 60 91 117 91 204 0 66 -22
121 -76 188 -95 119 -204 257 -225 285 -14 19 -32 41 -40 50 -8 9 -37 45 -64
81 -60 77 -282 354 -313 389 -12 14 -34 42 -50 62 -15 20 -47 60 -70 90 -90
116 -78 187 46 266 101 65 166 125 249 230 143 183 202 285 270 472 48 131 69
224 91 390 11 84 12 384 1 441 -5 24 -14 73 -21 109 -32 170 -127 395 -234
555 -74 110 -144 188 -248 276 -49 41 -94 79 -101 85 -28 26 -206 143 -261
171 -109 56 -249 111 -340 133 -196 47 -220 47 -1826 49 l-1516 1 -51 -45z"/>
<path d="M850 5081 c-62 -17 -126 -72 -162 -138 -23 -42 -27 -59 -25 -123 3
-109 31 -154 121 -200 l69 -35 1023 -1 c776 -2 1031 -5 1059 -14 36 -12 37
-13 33 -55 -3 -23 -28 -89 -55 -146 -84 -173 -105 -262 -108 -457 -1 -74 2
-155 7 -180 5 -26 11 -60 14 -77 6 -36 41 -139 60 -176 11 -23 81 -130 118
-184 57 -80 125 -174 141 -194 11 -13 32 -38 46 -55 14 -17 125 -159 248 -316
122 -157 298 -377 392 -490 94 -113 191 -236 217 -275 26 -38 69 -95 97 -126
27 -31 70 -82 95 -114 25 -31 50 -62 55 -68 6 -7 30 -39 55 -72 52 -69 401
-507 410 -515 3 -3 30 -39 60 -80 205 -280 318 -407 391 -439 69 -31 200 -11
262 40 49 40 97 139 97 200 0 81 -54 178 -184 332 -29 34 -92 116 -139 182
-48 66 -109 148 -135 181 -26 34 -66 86 -88 115 -23 30 -50 64 -60 76 -11 12
-26 30 -34 40 -27 33 -164 205 -265 333 -55 69 -102 127 -105 130 -3 3 -32 41
-65 84 -33 44 -130 166 -215 272 -85 105 -191 241 -235 300 -44 60 -83 114
-87 119 -17 23 -174 212 -191 230 -36 37 -173 210 -219 275 -65 93 -121 202
-149 295 -31 103 -33 274 -5 375 75 267 234 410 485 436 35 3 199 7 365 8 199
2 315 6 342 14 50 15 120 81 145 137 40 90 31 192 -24 269 -20 28 -114 79
-172 92 -16 4 -841 7 -1832 8 -1516 1 -1811 -1 -1853 -13z"/>
<path d="M1745 3986 c-133 -34 -207 -91 -260 -200 -44 -89 -53 -142 -39 -225
25 -150 119 -274 244 -323 68 -27 181 -29 260 -5 108 33 217 126 264 227 27
58 30 75 30 160 0 82 -3 103 -27 154 -38 82 -135 176 -207 200 -70 23 -200 29
-265 12z"/>
</g>
</svg>
