<?xml version="1.0" encoding="UTF-8"?>
<!DOCTYPE svg PUBLIC "-//W3C//DTD SVG 1.1//EN" "http://www.w3.org/Graphics/SVG/1.1/DTD/svg11.dtd">
<svg xmlns="http://www.w3.org/2000/svg" version="1.1" width="50px" height="50px" style="shape-rendering:geometricPrecision; text-rendering:geometricPrecision; image-rendering:optimizeQuality; fill-rule:evenodd; clip-rule:evenodd" xmlns:xlink="http://www.w3.org/1999/xlink">
<g><path style="opacity:0.628" fill="#fefffe" d="M 49.5,12.5 C 49.5,13.8333 49.5,15.1667 49.5,16.5C 45.1621,18.6689 40.8288,20.8356 36.5,23C 33.0872,29.8272 29.4205,36.4939 25.5,43C 23.8659,43.4935 22.1992,43.6602 20.5,43.5C 21.336,38.8308 21.836,34.1642 22,29.5C 16.3006,33.0545 10.1339,34.2212 3.5,33C 2.53432,30.2315 1.20098,27.7315 -0.5,25.5C -0.5,23.8333 -0.5,22.1667 -0.5,20.5C 0.264561,20.0766 1.09789,19.7432 2,19.5C 4.59094,20.4335 6.92427,21.7669 9,23.5C 10.5589,22.9706 12.0589,22.304 13.5,21.5C 14.521,20.9984 14.6877,20.3317 14,19.5C 7.0267,16.8348 6.86003,14.1681 13.5,11.5C 17.9649,12.9325 22.4649,14.2659 27,15.5C 30.442,13.8623 33.942,12.3623 37.5,11C 41.8015,9.99396 45.8015,10.494 49.5,12.5 Z M 3.5,24.5 C 5.89574,26.2121 8.5624,26.7121 11.5,26C 20.5833,22.1942 29.5833,18.1942 38.5,14C 40.9018,13.1859 43.2351,13.3526 45.5,14.5C 41.4141,16.96 37.2475,19.2934 33,21.5C 30.5265,27.2521 27.8598,32.9187 25,38.5C 24.9672,34.6469 25.4672,30.8136 26.5,27C 26.1667,26.1667 25.8333,25.3333 25.5,24.5C 20.2414,27.2149 14.7414,29.2149 9,30.5C 5.58678,30.0378 3.75344,28.0378 3.5,24.5 Z M 14.5,16.5 C 16.9227,15.5621 19.256,16.0621 21.5,18C 18.9047,18.6004 16.5713,18.1004 14.5,16.5 Z"/></g>
</svg>
