<?xml version="1.0" encoding="UTF-8"?>
<!DOCTYPE svg PUBLIC "-//W3C//DTD SVG 1.1//EN" "http://www.w3.org/Graphics/SVG/1.1/DTD/svg11.dtd">
<svg xmlns="http://www.w3.org/2000/svg" version="1.1" width="64px" height="64px" style="shape-rendering:geometricPrecision; text-rendering:geometricPrecision; image-rendering:optimizeQuality; fill-rule:evenodd; clip-rule:evenodd" xmlns:xlink="http://www.w3.org/1999/xlink">
<g><path style="opacity:0.948" fill="#fefffe" d="M 14.5,3.5 C 24.5056,3.33352 34.5056,3.50019 44.5,4C 46.6238,5.12173 48.4571,6.62173 50,8.5C 51.63,22.0722 51.9633,35.7389 51,49.5C 50.5,50 50,50.5 49.5,51C 46.8333,51.3333 44.1667,51.6667 41.5,52C 42.1667,53 42.8333,54 43.5,55C 39.8459,56.297 37.1792,55.297 35.5,52C 31.5,51.3333 27.5,51.3333 23.5,52C 21.8208,55.297 19.1541,56.297 15.5,55C 16.1667,54 16.8333,53 17.5,52C 14.8333,51.6667 12.1667,51.3333 9.5,51C 9,50.5 8.5,50 8,49.5C 7.33333,36.5 7.33333,23.5 8,10.5C 9.69406,7.64238 11.8607,5.30904 14.5,3.5 Z M 19.5,7.5 C 26.175,7.33375 32.8417,7.50042 39.5,8C 41.779,8.47285 43.779,9.47285 45.5,11C 34.8333,11.6667 24.1667,11.6667 13.5,11C 15.4319,9.5415 17.4319,8.37483 19.5,7.5 Z M 11.5,15.5 C 16.8333,15.5 22.1667,15.5 27.5,15.5C 27.5,19.5 27.5,23.5 27.5,27.5C 22.1667,27.5 16.8333,27.5 11.5,27.5C 11.5,23.5 11.5,19.5 11.5,15.5 Z M 31.5,15.5 C 36.8333,15.5 42.1667,15.5 47.5,15.5C 47.5,19.5 47.5,23.5 47.5,27.5C 42.1667,27.5 36.8333,27.5 31.5,27.5C 31.5,23.5 31.5,19.5 31.5,15.5 Z M 11.5,31.5 C 23.5,31.5 35.5,31.5 47.5,31.5C 50.8049,46.8528 44.8049,52.1861 29.5,47.5C 14.1951,52.1861 8.19511,46.8528 11.5,31.5 Z"/></g>
<g><path style="opacity:0.767" fill="#fefffe" d="M 15.5,35.5 C 16.8333,35.5 18.1667,35.5 19.5,35.5C 19.5,36.8333 19.5,38.1667 19.5,39.5C 18.1667,39.5 16.8333,39.5 15.5,39.5C 15.5,38.1667 15.5,36.8333 15.5,35.5 Z"/></g>
<g><path style="opacity:0.767" fill="#fefffe" d="M 39.5,35.5 C 40.8333,35.5 42.1667,35.5 43.5,35.5C 43.5,36.8333 43.5,38.1667 43.5,39.5C 42.1667,39.5 40.8333,39.5 39.5,39.5C 39.5,38.1667 39.5,36.8333 39.5,35.5 Z"/></g>
</svg>
