<?xml version="1.0" encoding="UTF-8"?>
<!DOCTYPE svg PUBLIC "-//W3C//DTD SVG 1.1//EN" "http://www.w3.org/Graphics/SVG/1.1/DTD/svg11.dtd">
<svg xmlns="http://www.w3.org/2000/svg" version="1.1" width="50px" height="50px" style="shape-rendering:geometricPrecision; text-rendering:geometricPrecision; image-rendering:optimizeQuality; fill-rule:evenodd; clip-rule:evenodd" xmlns:xlink="http://www.w3.org/1999/xlink">
<g><path style="opacity:0.795" fill="#fefffe" d="M 4.5,-0.5 C 17.8333,-0.5 31.1667,-0.5 44.5,-0.5C 44.8242,3.55461 44.4909,7.55461 43.5,11.5C 43.0253,8.07429 42.0253,4.90763 40.5,2C 35,1.83333 29.5,1.66667 24,1.5C 18.0886,1.52543 12.4219,2.1921 7,3.5C 6.33333,6.5 6.33333,9.5 7,12.5C 8.16284,14.2852 8.82951,16.2852 9,18.5C 9.01138,15.3408 9.84471,12.5074 11.5,10C 18.7527,8.44301 26.086,8.10968 33.5,9C 35.519,9.44966 37.3523,10.283 39,11.5C 39.5089,16.2302 40.3422,20.8969 41.5,25.5C 42.2868,24.7579 42.9535,23.9246 43.5,23C 41.6375,19.8506 40.9709,16.3506 41.5,12.5C 43.7925,12.2436 45.9592,12.5769 48,13.5C 49.4436,18.2472 48.277,22.0806 44.5,25C 44.6301,26.0588 45.1301,26.8921 46,27.5C 46.4997,34.8258 46.6663,42.1591 46.5,49.5C 43.1667,49.5 39.8333,49.5 36.5,49.5C 36.5,47.8333 36.5,46.1667 36.5,44.5C 28.5,44.5 20.5,44.5 12.5,44.5C 12.5,46.1667 12.5,47.8333 12.5,49.5C 9.16667,49.5 5.83333,49.5 2.5,49.5C 2.33368,42.1591 2.50034,34.8258 3,27.5C 3.86992,26.8921 4.36992,26.0588 4.5,25C 0.723033,22.0806 -0.443633,18.2472 1,13.5C 1.68909,12.6433 2.52242,11.9767 3.5,11.5C 4.49091,7.55461 4.82425,3.55461 4.5,-0.5 Z M 15.5,11.5 C 22.2569,11.1226 28.9236,11.6226 35.5,13C 36.1667,15.3333 36.8333,17.6667 37.5,20C 33.1126,20.226 28.7793,20.726 24.5,21.5C 20.2207,20.726 15.8874,20.226 11.5,20C 12.2638,17.9307 12.7638,15.764 13,13.5C 13.9947,12.9341 14.828,12.2674 15.5,11.5 Z M 7.5,21.5 C 8.78202,22.7082 8.78202,24.0416 7.5,25.5C 5.06592,23.8534 5.06592,22.5201 7.5,21.5 Z M 11.5,23.5 C 20.1667,23.5 28.8333,23.5 37.5,23.5C 37.3505,24.552 37.5172,25.552 38,26.5C 43.3906,28.1075 45.5573,31.7742 44.5,37.5C 31.1667,37.5 17.8333,37.5 4.5,37.5C 3.44271,31.7742 5.60937,28.1075 11,26.5C 11.4828,25.552 11.6495,24.552 11.5,23.5 Z M 19.5,27.5 C 22.8499,27.335 26.1832,27.5017 29.5,28C 30.5536,29.3876 30.7203,30.8876 30,32.5C 26.5915,33.6219 23.0915,33.7886 19.5,33C 18.2475,31.1722 18.2475,29.3388 19.5,27.5 Z M 8.5,31.5 C 9.97782,31.238 11.3112,31.5713 12.5,32.5C 11.8333,32.8333 11.1667,33.1667 10.5,33.5C 9.28665,33.2528 8.61998,32.5862 8.5,31.5 Z M 36.5,31.5 C 37.9778,31.238 39.3112,31.5713 40.5,32.5C 39.8333,32.8333 39.1667,33.1667 38.5,33.5C 37.2867,33.2528 36.62,32.5862 36.5,31.5 Z M 4.5,39.5 C 17.8333,39.5 31.1667,39.5 44.5,39.5C 44.5,40.5 44.5,41.5 44.5,42.5C 31.1667,42.5 17.8333,42.5 4.5,42.5C 4.5,41.5 4.5,40.5 4.5,39.5 Z M 4.5,44.5 C 6.60395,44.2011 8.60395,44.5344 10.5,45.5C 9.30727,47.3837 7.64061,47.8837 5.5,47C 4.74756,46.3292 4.41423,45.4959 4.5,44.5 Z M 38.5,44.5 C 40.604,44.2011 42.604,44.5344 44.5,45.5C 43.3073,47.3837 41.6406,47.8837 39.5,47C 38.7476,46.3292 38.4142,45.4959 38.5,44.5 Z"/></g>
<g><path style="opacity:0.878" fill="#fefffe" d="M 16.5,25.5 C 21.8333,25.5 27.1667,25.5 32.5,25.5C 32.5,28.8333 32.5,32.1667 32.5,35.5C 27.1667,35.5 21.8333,35.5 16.5,35.5C 16.5,32.1667 16.5,28.8333 16.5,25.5 Z M 19.5,27.5 C 18.2475,29.3388 18.2475,31.1722 19.5,33C 23.0915,33.7886 26.5915,33.6219 30,32.5C 30.7203,30.8876 30.5536,29.3876 29.5,28C 26.1832,27.5017 22.8499,27.335 19.5,27.5 Z"/></g>
<g><path style="opacity:0.931" fill="#fefffe" d="M 6.5,29.5 C 9.16667,29.5 11.8333,29.5 14.5,29.5C 14.5,31.5 14.5,33.5 14.5,35.5C 11.8333,35.5 9.16667,35.5 6.5,35.5C 6.5,33.5 6.5,31.5 6.5,29.5 Z M 8.5,31.5 C 8.61998,32.5862 9.28665,33.2528 10.5,33.5C 11.1667,33.1667 11.8333,32.8333 12.5,32.5C 11.3112,31.5713 9.97782,31.238 8.5,31.5 Z"/></g>
<g><path style="opacity:0.931" fill="#fefffe" d="M 34.5,29.5 C 37.1667,29.5 39.8333,29.5 42.5,29.5C 42.5,31.5 42.5,33.5 42.5,35.5C 39.8333,35.5 37.1667,35.5 34.5,35.5C 34.5,33.5 34.5,31.5 34.5,29.5 Z M 36.5,31.5 C 36.62,32.5862 37.2867,33.2528 38.5,33.5C 39.1667,33.1667 39.8333,32.8333 40.5,32.5C 39.3112,31.5713 37.9778,31.238 36.5,31.5 Z"/></g>
</svg>
