<?xml version="1.0" encoding="UTF-8"?>
<!DOCTYPE svg PUBLIC "-//W3C//DTD SVG 1.1//EN" "http://www.w3.org/Graphics/SVG/1.1/DTD/svg11.dtd">
<svg xmlns="http://www.w3.org/2000/svg" version="1.1" width="50px" height="50px" style="shape-rendering:geometricPrecision; text-rendering:geometricPrecision; image-rendering:optimizeQuality; fill-rule:evenodd; clip-rule:evenodd" xmlns:xlink="http://www.w3.org/1999/xlink">
<g><path style="opacity:0.849" fill="#fefffe" d="M -0.5,11.5 C 11.8333,11.5 24.1667,11.5 36.5,11.5C 36.5,12.5 36.5,13.5 36.5,14.5C 39.5184,14.3354 42.5184,14.502 45.5,15C 46.7332,17.3143 48.0666,19.4809 49.5,21.5C 49.5,26.1667 49.5,30.8333 49.5,35.5C 47.3624,36.9745 45.0291,37.9745 42.5,38.5C 36.5,35.8333 30.5,35.8333 24.5,38.5C 23.2284,38.4302 22.0617,38.0968 21,37.5C 20.5065,35.8659 20.3398,34.1992 20.5,32.5C 19.5,32.5 18.5,32.5 17.5,32.5C 17.6602,34.1992 17.4935,35.8659 17,37.5C 15.9383,38.0968 14.7716,38.4302 13.5,38.5C 9.90766,38.0854 6.24099,37.9187 2.5,38C 2.11996,35.6742 1.11996,33.8409 -0.5,32.5C -0.5,25.5 -0.5,18.5 -0.5,11.5 Z M 1.5,13.5 C 12.5,13.5 23.5,13.5 34.5,13.5C 34.5,19.1667 34.5,24.8333 34.5,30.5C 23.5,30.5 12.5,30.5 1.5,30.5C 1.5,24.8333 1.5,19.1667 1.5,13.5 Z M 37.5,16.5 C 39.6547,16.372 41.6547,16.872 43.5,18C 42.2068,18.49 40.8734,18.6567 39.5,18.5C 39.5,20.8333 39.5,23.1667 39.5,25.5C 46.1071,23.749 48.6071,26.0823 47,32.5C 44.8471,30.5561 42.3471,30.0561 39.5,31C 38.6634,32.0113 38.33,33.1779 38.5,34.5C 35.1016,34.8204 31.7683,34.487 28.5,33.5C 31.0865,32.52 33.7531,32.1866 36.5,32.5C 36.2175,27.0735 36.5509,21.7401 37.5,16.5 Z M 41.5,20.5 C 43.7159,20.2746 45.3826,21.1079 46.5,23C 44.8659,23.4935 43.1992,23.6602 41.5,23.5C 41.5,22.5 41.5,21.5 41.5,20.5 Z M 4.5,33.5 C 6.33702,33.6395 6.67036,34.3061 5.5,35.5C 4.70245,35.0431 4.36912,34.3764 4.5,33.5 Z M 12.5,33.5 C 14.337,33.6395 14.6704,34.3061 13.5,35.5C 12.7025,35.0431 12.3691,34.3764 12.5,33.5 Z M 23.5,33.5 C 25.337,33.6395 25.6704,34.3061 24.5,35.5C 23.7025,35.0431 23.3691,34.3764 23.5,33.5 Z M 41.5,33.5 C 43.337,33.6395 43.6704,34.3061 42.5,35.5C 41.7025,35.0431 41.3691,34.3764 41.5,33.5 Z"/></g>
</svg>
