<svg xmlns="http://www.w3.org/2000/svg" width="32" height="32" viewBox="0 0 32 32" fill="none">
  <g clip-path="url(#clip0_673_183)">
    <path
      d="M28.9531 0.804084C24.2776 0.790964 7.03244 0.813044 3.04652 0.804084C1.8062 0.804084 0.799805 1.77976 0.799805 2.98136V29.0233C0.799805 30.2252 1.8062 31.1999 3.04652 31.1999H28.9531C30.194 31.1999 31.1998 30.2252 31.1998 29.023V2.98136C31.1998 1.77976 30.194 0.804084 28.9531 0.804084ZM10.0385 26.2415H5.48908V12.557H10.0382V20.3074C10.0401 21.7241 10.0376 24.8044 10.0385 26.2415ZM7.7646 10.6892C6.23212 10.7055 5.21772 9.64856 5.22092 8.32504C5.21644 5.1932 10.3249 5.158 10.338 8.32536C10.338 9.63832 9.35052 10.6892 7.7646 10.6892ZM26.4417 26.2415H21.8932V18.9215C21.8932 17.0818 21.2344 15.8271 19.5889 15.8271C17.8996 15.886 17.0603 17.1964 17.1051 18.6006V26.2418L12.5563 26.2422C12.5563 26.2422 12.6161 13.8415 12.5566 12.558H17.1054L17.075 14.542C17.6737 13.6079 18.7515 12.2367 21.2052 12.2367C24.1979 12.2367 26.442 14.1926 26.442 18.3958V26.2415H26.4417Z"
      fill="white" />
  </g>
  <defs>
    <clipPath id="clip0_673_183">
      <rect width="32" height="32" fill="white" />
    </clipPath>
  </defs>
</svg>