<svg xmlns="http://www.w3.org/2000/svg" width="37" height="38" viewBox="0 0 37 38" fill="none">
  <g clip-path="url(#clip0_673_188)">
    <path
      d="M34.2344 22.5386C36.7878 10.9239 26.4071 0.235636 15.0851 2.87284C6.82186 -3.39336 -3.31503 7.00344 2.79071 15.4983C1.11054 23.1154 5.1983 31.3276 12.2627 34.2384C15.3208 35.5772 18.6511 35.8785 21.9401 35.1649C23.5244 36.4162 25.3067 37.0424 27.2873 37.0424C34.5278 37.1055 38.6959 28.4066 34.2344 22.5386ZM27.0135 26.0243C24.2063 30.8397 16.4829 30.6432 12.3426 28.3712C10.4838 27.3464 9.55468 26.114 9.55468 24.6746C9.55653 23.2515 10.379 22.178 11.8627 22.2103C13.9987 22.3212 14.6551 24.8349 16.6731 25.4494C18.374 26.1467 21.9001 26.0456 22.0773 23.712C21.9826 22.0347 20.7605 22.0499 18.7866 21.4594C16.3986 20.7746 13.1474 20.3878 11.2685 18.7139C9.28495 17.0974 9.07035 13.5816 10.3202 11.4266C13.7694 5.0966 30.2051 8.21526 26.1329 14.1839C25.4954 14.969 24.2004 15.1639 23.3109 14.6528C22.6183 14.2812 22.141 13.6816 21.5286 13.186C20.7616 12.5609 19.6327 12.2205 18.535 12.2353C16.3412 12.2353 15.2445 12.8383 15.2445 14.0422C15.2294 14.5168 15.4884 14.9546 15.7929 15.2392C16.5492 15.7856 17.314 15.8749 18.2834 16.1314C20.372 16.6592 22.6431 17.0073 24.5449 18.0318C27.6484 19.4268 28.6134 23.082 27.0135 26.0243Z"
      fill="white" />
  </g>
  <defs>
    <clipPath id="clip0_673_188">
      <rect width="37" height="38" fill="white" />
    </clipPath>
  </defs>
</svg>