<svg xmlns="http://www.w3.org/2000/svg" width="35" height="35" viewBox="0 0 35 35" fill="none">
  <path
    d="M31.3471 9.20931C30.8002 7.25697 29.7174 5.71478 28.1314 4.62377C26.1299 3.24291 23.8275 2.75619 21.8396 2.45814C19.0889 2.04799 16.5979 1.99056 14.2217 2.28041C11.9959 2.55385 10.3197 2.98861 8.79121 3.69135C5.79434 5.06947 3.99512 7.29799 3.44551 10.314C3.17754 11.7796 2.99707 13.1031 2.89316 14.3663C2.65254 17.2867 2.87129 19.8706 3.56035 22.266C4.23301 24.6011 5.40605 26.2691 7.14785 27.3656C7.59082 27.6445 8.15957 27.8468 8.70918 28.041C9.0209 28.1503 9.32441 28.257 9.57324 28.3745C9.80293 28.4812 9.80293 28.5003 9.80019 28.6917C9.78105 30.3515 9.80019 33.6054 9.80019 33.6054L9.80566 34.2999H11.0525L11.2549 34.1031C11.3889 33.9773 14.4787 30.9913 15.5807 29.7882L15.7311 29.6214C15.9197 29.4027 15.9197 29.4027 16.1139 29.3999C17.6014 29.3699 19.1217 29.3124 20.6311 29.2304C22.4604 29.132 24.5795 28.9542 26.5756 28.123C28.4021 27.3601 29.7365 26.1488 30.5377 24.5245C31.3744 22.8292 31.8693 20.9945 32.0553 18.9136C32.3834 15.255 32.151 12.0804 31.3471 9.20931ZM24.7682 23.4363C24.3088 24.1828 23.6252 24.7023 22.8186 25.0386C22.2279 25.2847 21.6264 25.2328 21.0439 24.9867C16.1686 22.9222 12.3432 19.671 9.8166 14.9953C9.29434 14.0328 8.9334 12.9828 8.51777 11.9656C8.43301 11.7578 8.43848 11.5117 8.40019 11.282C8.43574 9.63861 9.69629 8.71166 10.9705 8.43275C11.4572 8.32338 11.8893 8.49564 12.2502 8.84291C13.251 9.79447 14.0412 10.9019 14.6373 12.1433C14.8971 12.6874 14.7795 13.1687 14.3365 13.5734C14.2436 13.6581 14.1479 13.7347 14.0467 13.8113C13.035 14.5714 12.8873 15.1484 13.426 16.2941C14.3447 18.2437 15.8705 19.5535 17.842 20.3656C18.3615 20.5788 18.851 20.4722 19.2475 20.0511C19.3021 19.9964 19.3623 19.9417 19.4006 19.8761C20.1771 18.58 21.3064 18.7085 22.3482 19.4468C23.0318 19.9335 23.6963 20.4476 24.3717 20.9425C25.4025 21.6999 25.3943 22.4109 24.7682 23.4363ZM18.3014 10.4999C18.0717 10.4999 17.842 10.5191 17.615 10.5574C17.2322 10.6203 16.874 10.3632 16.8084 9.98041C16.7455 9.60033 17.0025 9.23939 17.3854 9.1765C17.6861 9.12455 17.9951 9.09994 18.3014 9.09994C21.3338 9.09994 23.8002 11.5663 23.8002 14.5988C23.8002 14.9078 23.7756 15.2167 23.7236 15.5148C23.6662 15.8566 23.3709 16.0999 23.0346 16.0999C22.9963 16.0999 22.958 16.0972 22.917 16.089C22.5369 16.0261 22.2799 15.6652 22.3428 15.2851C22.3811 15.0609 22.4002 14.8312 22.4002 14.5988C22.4002 12.3402 20.56 10.4999 18.3014 10.4999ZM21.7002 14.6999C21.7002 15.0855 21.3857 15.3999 21.0002 15.3999C20.6146 15.3999 20.3002 15.0855 20.3002 14.6999C20.3002 13.5433 19.3568 12.5999 18.2002 12.5999C17.8146 12.5999 17.5002 12.2855 17.5002 11.8999C17.5002 11.5144 17.8146 11.1999 18.2002 11.1999C20.1307 11.1999 21.7002 12.7695 21.7002 14.6999ZM25.6979 16.2558C25.624 16.5812 25.3342 16.7999 25.0143 16.7999C24.9623 16.7999 24.9104 16.7945 24.8584 16.7835C24.4811 16.696 24.2459 16.3214 24.3307 15.9441C24.4318 15.4984 24.4838 15.0363 24.4838 14.5714C24.4838 11.1699 21.7139 8.39994 18.3123 8.39994C17.8475 8.39994 17.3854 8.45189 16.9396 8.55306C16.5623 8.64056 16.1877 8.40267 16.1029 8.02533C16.0154 7.64798 16.2533 7.27338 16.6307 7.18861C17.1775 7.06283 17.7436 6.99994 18.3123 6.99994C22.4877 6.99994 25.8838 10.396 25.8838 14.5714C25.8838 15.1402 25.8209 15.7062 25.6979 16.2558Z"
    fill="white" />
</svg>