<?xml version="1.0" encoding="utf-8"?>
<!-- Generator: Adobe Illustrator 27.9.0, SVG Export Plug-In . SVG Version: 6.00 Build 0)  -->
<svg version="1.1" id="Layer_1" xmlns="http://www.w3.org/2000/svg" xmlns:xlink="http://www.w3.org/1999/xlink" x="0px" y="0px"
	 viewBox="0 0 75 75" style="enable-background:new 0 0 75 75;" xml:space="preserve">
<style type="text/css">
	.st0{fill:#FFFFFF;}
</style>
<g>
	<path class="st0" d="M18.8,5.8c0.2,0,0.3,0,0.4,0c0.4,0,0.8,0,1.3,0c0.3,0,0.7,0,0.9,0c0.8,0,1.7,0,2.6,0c0.9,0,1.8,0,2.7,0
		c1.5,0,3,0,4.5,0c1.8,0,3.5,0,5.2,0c1.5,0,3,0,4.5,0c0.9,0,1.8,0,2.7,0c0.8,0,1.7,0,2.5,0c0.3,0,0.6,0,0.9,0c2.4,0,4.7,0.1,7,0.9
		c0.2,0.1,0.3,0.1,0.4,0.2c2.2,0.8,4,2,5.8,3.6c0.2,0.1,0.3,0.3,0.4,0.3c3.1,2.9,5,7.2,5.1,11.5c0.1,4.5-1.1,8.8-4,12.2
		c-0.2,0.3-0.2,0.3-0.3,0.4c-0.8,1-1.8,1.8-2.9,2.4c-0.4,0.3-0.4,0.3-0.6,1c0,0.8,0.3,1.1,0.8,1.8c0.1,0.1,0.2,0.2,0.3,0.3
		c0.2,0.3,0.3,0.4,0.5,0.7c0.4,0.5,0.8,0.9,1.2,1.4c0.2,0.3,0.4,0.5,0.6,0.8c0.8,0.9,1.5,1.9,2.3,2.9c0.7,0.8,1.3,1.7,2,2.5
		c2,2.5,2,2.5,1.9,4.1c-0.3,0.9-0.8,1.5-1.7,2c-0.8,0.3-1.5,0.3-2.4-0.1c-0.8-0.4-1.3-1-1.9-1.8c-0.1-0.2-0.2-0.3-0.3-0.4
		c-0.3-0.4-0.6-0.8-0.9-1.3c-0.1-0.2-0.2-0.3-0.3-0.4c-0.4-0.5-0.8-1-1.2-1.5c-0.8-1.1-1.7-2.1-2.5-3.2c-0.9-1.1-1.9-2.3-2.7-3.4
		c-0.3-0.3-0.5-0.7-0.8-1c-2.9-3.7-2.9-3.7-2.8-5.6c0.7-1.4,2-1.9,3.5-2.5c3-1.3,4.9-3.7,6.1-6.7c1.1-2.9,0.9-5.9-0.3-8.8
		c-1.4-3-3.7-5-6.7-6.2c-2.4-0.8-5-0.8-7.5-0.8c-0.3,0-0.6,0-0.9,0c-0.7,0-1.3,0-1.9,0c-1,0-2.1,0-3.1,0c-0.3,0-0.7,0-1.1,0
		c-0.3,0-0.3,0-0.5,0c-2.4,0-4.8,0-7.2,0c-1.6,0-3.3,0-4.9,0c-0.8,0-1.7,0-2.6,0c-0.8,0-1.6,0-2.4,0c-0.3,0-0.6,0-0.9,0
		c-0.4,0-0.8,0-1.2,0s-0.3,0-0.7,0c-0.8-0.2-1.4-0.5-2-1.2c-0.4-0.8-0.6-1.3-0.4-2.2c0.3-0.8,0.8-1.4,1.6-1.9
		C17.6,5.8,18.1,5.8,18.8,5.8z"/>
	<path class="st0" d="M11.1,20.4c0.2,0,0.3,0,0.5,0c0.5,0,1.1,0,1.6,0c0.4,0,0.8,0,1.2,0c1.3,0,2.5,0,3.8,0c0.4,0,0.8,0,1.3,0
		c2,0,4,0,6.1,0c2.4,0,4.7,0,7.1,0c1.9,0,3.6,0,5.5,0c1.1,0,2.2,0,3.3,0c1,0,2,0,3,0c0.3,0,0.8,0,1.1,0c0.5,0,1,0,1.5,0
		c0.2,0,0.3,0,0.4,0c1,0,1.9,0.3,2.7,0.8c0.5,0.6,0.8,1.2,0.8,2c-0.1,1.1-0.5,1.7-1.3,2.4C49,26,48.3,26,47.6,26c-0.3,0-0.3,0-0.5,0
		c-0.5,0-1,0-1.6,0c-0.5,0-1,0-1.6,0c-0.3,0-0.7,0-1,0c-1.9,0-3.4,0.3-4.8,1.5c-1.4,1.6-2,3.4-2,5.5c0.2,2.9,1.8,4.9,3.5,7
		c0.4,0.5,0.8,0.9,1.2,1.4c0.1,0.1,0.2,0.3,0.3,0.3c0.7,0.8,1.4,1.8,2.1,2.7C44,45.6,45,46.8,46,48c1,1.2,1.9,2.4,2.9,3.7
		c1.1,1.3,2.1,2.7,3.2,4c1,1.3,2,2.4,2.9,3.7c0.3,0.4,0.7,0.8,1,1.3c0.2,0.3,0.3,0.4,0.5,0.7c0.4,0.6,0.8,1.1,1.3,1.7
		c0.1,0.1,0.2,0.3,0.3,0.3c0.2,0.3,0.3,0.4,0.5,0.7c0.7,0.9,1.1,1.5,1.1,2.7c-0.2,0.9-0.6,1.5-1.3,2.1c-0.8,0.3-1.6,0.5-2.4,0.3
		c-0.8-0.4-1.3-0.9-1.9-1.7c-0.1-0.2-0.1-0.2-0.3-0.3c-0.8-0.9-1.5-1.9-2.2-2.9c-0.8-1-1.6-2-2.4-3c-0.9-1.1-1.8-2.2-2.6-3.3
		c-0.4-0.5-0.8-1.1-1.3-1.6c-0.2-0.3-0.3-0.4-0.5-0.7c-0.1-0.1-0.2-0.3-0.3-0.3c-0.8-0.9-0.8-0.9-1-1.3c-0.2-0.3-0.3-0.4-0.5-0.7
		c-0.4-0.5-0.8-1.1-1.3-1.6c-0.8-1-1.5-1.9-2.4-2.9c-1-1.2-1.9-2.4-2.9-3.7c-0.7-0.9-1.4-1.8-2.1-2.7c-1.1-1.3-2-2.6-2.9-4
		c-0.1-0.2-0.2-0.3-0.3-0.4c-1.3-2.4-1.3-5.5-0.7-8c0.3-0.9,0.7-1.8,1.1-2.5c0.3-0.5,0.3-0.8,0.3-1.4c-0.5-0.3-0.8-0.3-1.3-0.3
		c-0.2,0-0.3,0-0.6,0c-0.2,0-0.4,0-0.6,0c-0.3,0-0.4,0-0.7,0c-0.5,0-0.9,0-1.4,0c-0.8,0-1.5,0-2.3,0c-0.3,0-0.5,0-0.8,0
		c-0.2,0-0.3,0-0.4,0c-1.8,0-3.5,0-5.2,0c-1.2,0-2.4,0-3.5,0c-0.6,0-1.3,0-1.9,0c-0.7,0-1.4,0-2.1,0c-0.3,0-0.3,0-0.6,0
		c-1.1,0-1.8-0.1-2.7-0.8c-0.6-0.7-0.7-1.4-0.6-2.3c0.1-0.8,0.6-1.3,1.2-1.9C9.3,20.3,10.2,20.4,11.1,20.4z"/>
	<path class="st0" d="M22,32.6c1,0.7,1.7,1.5,2,2.6c0.2,1.3,0.1,2.5-0.8,3.6c-1,1.1-1.9,1.6-3.5,1.8c-1.3,0-2.3-0.5-3.1-1.3
		c-0.8-1-1.2-2-1.2-3.3c0.2-1.3,0.8-2.3,1.7-3.1C18.8,32,20.4,31.9,22,32.6z"/>
</g>
</svg>
