<?xml version="1.0" encoding="utf-8"?>
<!-- Generator: Adobe Illustrator 27.9.0, SVG Export Plug-In . SVG Version: 6.00 Build 0)  -->
<svg version="1.1" id="Layer_1" xmlns="http://www.w3.org/2000/svg" xmlns:xlink="http://www.w3.org/1999/xlink" x="0px" y="0px"
	 viewBox="0 0 210 115" enable-background="new 0 0 210 115" xml:space="preserve">
<g>
	<path fill="#FFFFFF" d="M82.905,1.111c0.157-0.001,0.313-0.001,0.475-0.002c0.524-0.002,1.048,0,1.572,0.001
		c0.376-0.001,0.753-0.001,1.129-0.002c1.022-0.002,2.044-0.001,3.066,0c1.072,0.001,2.143,0,3.215-0.001
		c1.802-0.001,3.604,0,5.406,0.002c2.077,0.002,4.154,0.002,6.231-0.001c1.787-0.002,3.574-0.002,5.36-0.001
		c1.066,0.001,2.131,0.001,3.197-0.001c1.004-0.001,2.008,0,3.012,0.002c0.366,0.001,0.733,0,1.099-0.001
		c2.842-0.007,5.627,0.12,8.339,1.063c0.164,0.056,0.328,0.112,0.497,0.17c2.617,0.939,4.824,2.4,6.892,4.257
		c0.154,0.136,0.307,0.271,0.465,0.411c3.667,3.436,5.892,8.606,6.103,13.587c0.139,5.298-1.333,10.389-4.829,14.47
		c-0.221,0.268-0.221,0.268-0.447,0.542c-1.028,1.204-2.074,2.087-3.424,2.918c-0.535,0.436-0.535,0.436-0.708,1.184
		c0.019,1,0.274,1.319,0.912,2.08c0.097,0.119,0.195,0.238,0.295,0.36c0.212,0.258,0.425,0.514,0.641,0.769
		c0.472,0.561,0.933,1.131,1.394,1.7c0.241,0.297,0.482,0.594,0.724,0.89c0.908,1.112,1.783,2.243,2.653,3.385
		c0.779,1.012,1.591,1.997,2.404,2.983c2.426,2.957,2.426,2.957,2.293,4.921c-0.38,1.056-0.963,1.847-1.956,2.39
		c-1.041,0.332-1.805,0.322-2.804-0.121c-0.981-0.522-1.572-1.217-2.235-2.093c-0.12-0.153-0.24-0.305-0.363-0.462
		c-0.376-0.481-0.748-0.966-1.118-1.453c-0.117-0.153-0.234-0.306-0.354-0.464c-0.466-0.61-0.931-1.22-1.395-1.832
		c-0.972-1.278-1.985-2.517-3.011-3.752c-1.093-1.317-2.154-2.657-3.205-4.008c-0.308-0.394-0.617-0.787-0.926-1.179
		c-3.506-4.445-3.506-4.445-3.278-6.585c0.788-1.739,2.425-2.325,4.102-3.002c3.563-1.49,5.788-4.427,7.277-7.902
		c1.287-3.452,1.136-7.016-0.295-10.394c-1.728-3.55-4.39-5.885-8.041-7.389c-2.885-0.96-5.896-0.901-8.902-0.9
		c-0.364-0.001-0.729-0.001-1.093-0.002c-0.779-0.002-1.559-0.003-2.338-0.004c-1.233-0.001-2.466-0.005-3.699-0.009
		c-0.423-0.001-0.847-0.003-1.27-0.004c-0.318-0.001-0.318-0.001-0.642-0.002c-2.867-0.009-5.734-0.016-8.6-0.019
		c-1.939-0.002-3.879-0.007-5.818-0.015c-1.025-0.004-2.049-0.007-3.074-0.006c-0.962,0.001-1.924-0.002-2.886-0.008
		c-0.353-0.002-0.705-0.002-1.058,0c-0.482,0.002-0.964-0.001-1.446-0.006c-0.404-0.001-0.404-0.001-0.817-0.002
		c-1.012-0.151-1.72-0.585-2.363-1.383c-0.453-0.909-0.684-1.634-0.488-2.648c0.363-0.958,1.017-1.723,1.934-2.18
		C81.468,1.12,82.107,1.111,82.905,1.111z"/>
	<path fill="#FFFFFF" d="M73.84,18.519c0.189-0.001,0.379-0.002,0.574-0.002c0.636-0.002,1.272-0.003,1.908-0.004
		c0.455-0.001,0.911-0.003,1.366-0.004c1.497-0.005,2.994-0.007,4.49-0.009c0.515-0.001,1.031-0.002,1.546-0.003
		c2.42-0.004,4.841-0.007,7.261-0.009c2.794-0.002,5.589-0.008,8.383-0.017c2.16-0.007,4.319-0.01,6.479-0.01
		c1.29-0.001,2.58-0.002,3.87-0.008c1.214-0.005,2.427-0.006,3.641-0.004c0.445,0,0.89-0.001,1.335-0.004
		c0.608-0.004,1.217-0.002,1.825,0.001c0.175-0.002,0.351-0.005,0.531-0.007c1.21,0.014,2.176,0.281,3.176,0.982
		c0.639,0.741,0.918,1.439,0.964,2.418c-0.145,1.288-0.647,1.965-1.648,2.782c-0.77,0.446-1.589,0.382-2.458,0.372
		c-0.294,0.003-0.294,0.003-0.594,0.007c-0.625,0.006-1.249,0.006-1.873,0.004c-0.622,0.002-1.244,0.005-1.866,0.011
		c-0.386,0.003-0.772,0.004-1.158,0.002c-2.156,0.01-3.998,0.422-5.709,1.793c-1.697,1.876-2.384,4.016-2.39,6.52
		c0.207,3.387,2.054,5.75,4.129,8.258c0.463,0.565,0.924,1.131,1.385,1.698c0.118,0.145,0.237,0.289,0.358,0.438
		c0.849,1.042,1.669,2.103,2.48,3.175c1.086,1.434,2.212,2.83,3.361,4.214c1.194,1.44,2.349,2.908,3.498,4.383
		c1.253,1.606,2.516,3.203,3.803,4.781c1.188,1.456,2.355,2.927,3.511,4.408c0.395,0.505,0.791,1.01,1.188,1.514
		c0.198,0.252,0.396,0.504,0.594,0.756c0.52,0.663,1.042,1.324,1.567,1.983c0.109,0.137,0.218,0.275,0.33,0.416
		c0.208,0.263,0.418,0.525,0.627,0.786c0.845,1.066,1.311,1.761,1.269,3.157c-0.162,1.084-0.721,1.775-1.508,2.505
		c-0.971,0.45-1.854,0.558-2.907,0.34c-0.955-0.538-1.608-1.149-2.295-1.997c-0.136-0.167-0.136-0.167-0.276-0.338
		c-0.903-1.118-1.769-2.264-2.637-3.409c-0.938-1.235-1.907-2.441-2.889-3.641c-1.061-1.297-2.097-2.612-3.129-3.933
		c-0.494-0.632-0.991-1.263-1.487-1.895c-0.199-0.254-0.398-0.507-0.598-0.761c-0.099-0.126-0.197-0.251-0.299-0.38
		c-0.896-1.141-0.896-1.141-1.195-1.521c-0.199-0.254-0.399-0.507-0.598-0.761c-0.496-0.631-0.991-1.262-1.486-1.893
		c-0.912-1.163-1.826-2.323-2.753-3.475c-1.159-1.441-2.291-2.901-3.409-4.375c-0.82-1.076-1.665-2.128-2.525-3.173
		c-1.256-1.531-2.443-3.094-3.545-4.74c-0.1-0.15-0.201-0.299-0.304-0.453c-1.59-2.738-1.42-6.394-0.797-9.362
		c0.302-1.086,0.752-2.052,1.273-3.048c0.269-0.625,0.318-1.025,0.262-1.696c-0.537-0.269-0.892-0.245-1.493-0.246
		c-0.224-0.001-0.447-0.002-0.678-0.003c-0.246,0-0.493,0-0.746,0c-0.259-0.001-0.517-0.002-0.784-0.002
		c-0.563-0.002-1.127-0.003-1.69-0.004c-0.891-0.001-1.783-0.005-2.674-0.009c-0.305-0.001-0.61-0.003-0.915-0.004
		c-0.153-0.001-0.306-0.001-0.463-0.002C86.976,25.01,84.9,25.003,82.825,25c-1.4-0.002-2.799-0.007-4.199-0.015
		c-0.74-0.004-1.481-0.007-2.221-0.006c-0.827,0.001-1.653-0.004-2.48-0.01c-0.367,0.002-0.367,0.002-0.741,0.004
		c-1.338-0.016-2.142-0.089-3.158-0.989c-0.736-0.834-0.763-1.659-0.729-2.73c0.144-0.988,0.662-1.576,1.381-2.228
		C71.664,18.441,72.725,18.519,73.84,18.519z"/>
	<path fill="#FFFFFF" d="M3.233,88.636c0.284-0.002,0.284-0.002,0.574-0.004c0.628-0.003,1.255,0.001,1.883,0.005
		c0.439,0,0.877,0,1.316-0.001c0.921,0,1.843,0.002,2.764,0.007c1.172,0.006,2.344,0.006,3.516,0.003
		c0.908-0.002,1.815,0,2.723,0.003c0.431,0.001,0.863,0.001,1.294,0c7.754-0.008,7.754-0.008,10.563,2.428
		c1.287,1.398,1.378,2.876,1.372,4.703c0.004,0.197,0.007,0.394,0.011,0.598c0.001,1.545-0.201,2.8-1.206,4.034
		c-0.202,0.166-0.403,0.332-0.611,0.503c-0.166,0.137-0.166,0.137-0.334,0.277c-2.353,1.71-5.772,1.85-8.576,2.114
		c0.397,0.328,0.795,0.655,1.192,0.982c0.339,0.279,0.678,0.559,1.018,0.839c1.09,0.898,1.09,0.898,2.186,1.79
		c1.482,1.2,2.947,2.428,4.297,3.778c-0.016,0.853-0.037,1.341-0.652,1.956c-0.918,0.306-1.677,0.254-2.608,0
		c-0.593-0.369-1.052-0.829-1.535-1.331c-0.264-0.26-0.528-0.52-0.792-0.779c-0.124-0.125-0.248-0.249-0.376-0.378
		c-0.406-0.403-0.829-0.78-1.263-1.152c-0.641-0.554-1.273-1.116-1.902-1.684c-0.934-0.842-1.874-1.676-2.825-2.499
		c-0.099-0.105-0.198-0.209-0.3-0.317c-0.901-0.891-1.559-1.139-2.818-1.167c-0.197,0.002-0.393,0.004-0.596,0.006
		c-0.205-0.003-0.411-0.006-0.622-0.009c-0.651-0.008-1.302-0.007-1.953-0.006c-0.443-0.004-0.887-0.008-1.33-0.014
		c-1.083-0.011-2.165-0.015-3.247-0.014c0.006,0.259,0.011,0.518,0.017,0.784c0.02,0.961,0.032,1.921,0.042,2.882
		c0.005,0.416,0.013,0.831,0.022,1.247c0.013,0.598,0.019,1.195,0.024,1.793c0.006,0.186,0.011,0.371,0.017,0.563
		c0.001,1.288,0.001,1.288-0.625,1.977c-0.765,0.414-1.246,0.424-2.105,0.316c-0.625-0.285-0.625-0.285-1.087-0.652
		c-0.198-0.594-0.246-0.946-0.249-1.558c-0.002-0.184-0.003-0.369-0.005-0.559c-0.001-0.202-0.001-0.403-0.002-0.611
		c-0.001-0.213-0.003-0.426-0.004-0.645c-0.004-0.705-0.007-1.41-0.009-2.115c-0.001-0.24-0.002-0.481-0.003-0.729
		c-0.005-1.272-0.008-2.544-0.01-3.816c-0.002-1.316-0.01-2.631-0.019-3.947c-0.006-1.01-0.008-2.021-0.008-3.031
		c-0.001-0.485-0.004-0.97-0.008-1.455c-0.005-0.678-0.005-1.356-0.004-2.034c-0.003-0.201-0.006-0.402-0.008-0.609
		c0.007-0.813,0.022-1.341,0.434-2.053C1.6,88.605,2.347,88.625,3.233,88.636z M4.396,91.787c0,2.797,0,5.594,0,8.475
		c2.756,0.013,2.756,0.013,5.512,0.021c1.126,0.003,2.252,0.006,3.378,0.012c0.909,0.005,1.818,0.007,2.727,0.008
		c0.345,0.001,0.69,0.002,1.034,0.005c3.988,0.137,3.988,0.137,7.56-1.35c0.773-0.954,0.764-1.854,0.761-3.029
		c0.006-0.171,0.012-0.341,0.019-0.517c0.003-0.896-0.061-1.49-0.63-2.202c-1.397-1.324-3.056-1.457-4.891-1.447
		c-0.251,0-0.251,0-0.508,0c-0.551,0-1.103,0.002-1.654,0.004c-0.383,0-0.767,0.001-1.15,0.001
		c-1.007,0.001-2.014,0.003-3.021,0.005c-1.209,0.003-2.419,0.004-3.628,0.005C8.068,91.779,6.232,91.783,4.396,91.787z"/>
	<path fill="#FFFFFF" d="M176.607,87.971c0.161-0.005,0.322-0.01,0.488-0.014c0.778,0.211,1.089,0.6,1.59,1.223
		c0.105,0.645,0.145,1.164,0.134,1.808c0.001,0.179,0.002,0.359,0.004,0.543c0.003,0.592-0.003,1.183-0.008,1.774
		c0,0.413,0,0.826,0,1.238c0,0.865-0.004,1.73-0.011,2.595c-0.009,1.105-0.01,2.21-0.008,3.315c0.001,0.853-0.002,1.706-0.006,2.558
		c-0.002,0.407-0.002,0.814-0.002,1.222c0,0.572-0.005,1.143-0.011,1.714c0.001,0.166,0.001,0.332,0.002,0.503
		c-0.023,1.478-0.309,3.133-1.411,4.202c-2.151,1.948-5.313,2.064-8.065,2.062c-0.368,0.001-0.368,0.001-0.743,0.003
		c-0.515,0.001-1.03,0.001-1.546,0c-0.78-0.001-1.559,0.004-2.339,0.01c-7.212,0.02-7.212,0.02-9.453-1.981
		c-1.68-1.756-1.6-3.696-1.586-6.01c0.002-0.453,0-0.907-0.003-1.36c-0.004-3.892-0.004-3.892,1.363-5.505
		c2.806-2.391,6.528-2.209,10.014-2.194c0.281,0,0.562,0.001,0.851,0.001c0.737,0.001,1.475,0.003,2.212,0.005
		c0.756,0.002,1.512,0.003,2.269,0.004c1.477,0.002,2.954,0.006,4.43,0.011c-0.007-0.299-0.007-0.299-0.014-0.605
		c-0.015-0.742-0.026-1.484-0.034-2.226c-0.004-0.321-0.01-0.642-0.018-0.962c-0.011-0.462-0.015-0.923-0.019-1.385
		c-0.005-0.278-0.009-0.555-0.014-0.841c0.099-0.717,0.099-0.717,0.509-1.241C175.705,88.046,175.961,87.969,176.607,87.971z
		 M158.04,99.828c-0.527,0.778-0.505,1.577-0.508,2.485c-0.001,0.155-0.003,0.311-0.004,0.471c-0.002,0.328-0.003,0.656-0.003,0.984
		c-0.001,0.5-0.009,0.999-0.017,1.499c-0.001,0.319-0.002,0.639-0.003,0.958c-0.005,0.223-0.005,0.223-0.009,0.45
		c0.007,0.711,0.098,1.174,0.442,1.8c1.46,1.309,3.14,1.23,4.999,1.22c0.259,0.001,0.517,0.001,0.784,0.002
		c0.545,0,1.09-0.001,1.635-0.003c0.831-0.003,1.662,0,2.494,0.004c0.531,0,1.062-0.001,1.593-0.003
		c0.247,0.001,0.494,0.003,0.749,0.004c1.638-0.014,2.95-0.101,4.251-1.195c0.479-0.917,0.44-1.717,0.416-2.737
		c-0.002-0.302-0.002-0.302-0.004-0.609c-0.005-0.64-0.016-1.28-0.027-1.92c-0.004-0.435-0.008-0.87-0.012-1.304
		c-0.01-1.064-0.025-2.128-0.042-3.191c-1.751-0.01-3.503-0.018-5.254-0.023c-0.813-0.002-1.627-0.005-2.44-0.01
		c-0.786-0.005-1.573-0.007-2.359-0.008c-0.299-0.001-0.597-0.002-0.896-0.005C160.766,98.615,160.766,98.615,158.04,99.828z"/>
	<path fill="#FFFFFF" d="M145.176,96.716c1.143,0.689,1.853,1.536,2.229,2.814c0.222,0.928,0.269,1.811,0.268,2.762
		c0.001,0.167,0.002,0.333,0.003,0.505c0.001,0.35,0.001,0.699,0,1.049c-0.001,0.53,0.004,1.059,0.01,1.589
		c0.016,3.827,0.016,3.827-1.106,5.325c-1.817,1.503-3.747,1.911-6.083,1.925c-0.287,0.002-0.573,0.004-0.869,0.006
		c-0.311,0.001-0.622,0.002-0.932,0.003c-0.158,0.001-0.317,0.001-0.48,0.002c-0.839,0.003-1.678,0.005-2.516,0.006
		c-0.859,0.001-1.717,0.006-2.576,0.013c-0.667,0.004-1.334,0.005-2.001,0.006c-0.316,0.001-0.632,0.002-0.948,0.005
		c-2.52,0.021-5.219,0.018-7.229-1.696c-1.147-1.165-1.233-2.416-1.254-3.989c0.015-1.58,0.176-2.634,1.182-3.898
		c2.545-2.036,5.765-1.857,8.874-1.835c0.347,0.001,0.694,0.001,1.04,0.002c0.903,0.002,1.806,0.006,2.708,0.011
		c0.925,0.004,1.85,0.006,2.776,0.009c1.808,0.005,3.616,0.012,5.424,0.021c-0.238-1.063-0.238-1.063-0.842-1.929
		c-0.95-0.503-1.89-0.499-2.947-0.515c-0.319-0.007-0.638-0.014-0.957-0.022c-0.5-0.01-1-0.02-1.501-0.028
		c-0.485-0.009-0.969-0.02-1.454-0.031c-0.149-0.002-0.297-0.004-0.45-0.006c-0.847-0.022-1.527-0.114-2.281-0.511
		c-0.304-0.608-0.272-1.066-0.217-1.739C134.772,94.188,142.763,95.642,145.176,96.716z M126.094,104.609
		c-0.52,0.781-0.514,1.365-0.516,2.268c-0.006,0.287-0.012,0.573-0.019,0.868c0.04,0.769,0.04,0.769,0.445,1.285
		c1.507,1.031,3.28,0.86,5.033,0.859c0.291,0.001,0.582,0.002,0.873,0.003c0.608,0.002,1.215,0.002,1.823,0
		c0.775-0.001,1.549,0.002,2.324,0.007c0.6,0.003,1.2,0.003,1.8,0.003c0.423,0,0.846,0.003,1.27,0.006
		c1.571-0.008,2.987-0.022,4.285-1.019c0.383-0.498,0.36-0.809,0.349-1.432c-0.002-0.204-0.004-0.408-0.006-0.618
		c-0.005-0.212-0.011-0.424-0.017-0.643c-0.003-0.215-0.006-0.429-0.009-0.651c-0.008-0.53-0.018-1.06-0.032-1.59
		c-2.006-0.015-4.013-0.027-6.019-0.034c-0.932-0.003-1.864-0.008-2.795-0.015c-0.9-0.007-1.801-0.011-2.701-0.013
		c-0.342-0.001-0.685-0.004-1.027-0.007C128.558,103.856,128.558,103.856,126.094,104.609z"/>
	<path fill="#FFFFFF" d="M207.482,97.061c1.054,0.733,1.52,1.542,1.845,2.767c0.065,0.688,0.071,1.372,0.073,2.063
		c0.002,0.295,0.002,0.295,0.004,0.596c0.002,0.415,0.003,0.829,0.003,1.244c0.001,0.631,0.009,1.261,0.017,1.891
		c0.001,0.404,0.002,0.809,0.003,1.213c0.003,0.187,0.006,0.373,0.009,0.565c-0.011,1.463-0.361,2.659-1.4,3.726
		c-2.356,1.513-4.86,1.624-7.586,1.61c-0.326,0-0.652,0.001-0.979,0.002c-0.679,0.001-1.359,0-2.038-0.003
		c-0.864-0.004-1.727-0.002-2.591,0.002c-0.672,0.002-1.345,0.002-2.017,0c-0.318,0-0.636,0-0.954,0.002
		c-2.37,0.009-4.992,0.006-6.885-1.61c-1.268-1.317-1.348-2.339-1.358-4.088c-0.004-0.193-0.009-0.387-0.014-0.586
		c-0.008-1.339,0.165-2.256,1.04-3.321c2.438-2.139,5.898-1.815,8.944-1.805c0.348,0,0.696,0.001,1.044,0.001
		c0.91,0.001,1.82,0.003,2.73,0.005c0.931,0.002,1.862,0.003,2.793,0.004c1.822,0.002,3.644,0.006,5.466,0.011
		c-0.342-1.321-0.342-1.321-1.345-2.168c-0.868-0.234-1.662-0.315-2.554-0.311c-0.239-0.004-0.239-0.004-0.483-0.007
		c-0.675-0.01-1.349-0.012-2.024-0.016c-0.496-0.003-0.991-0.011-1.486-0.018c-0.151,0.001-0.302,0.001-0.458,0.002
		c-0.943-0.014-1.554-0.151-2.297-0.742c-0.217-0.638-0.217-0.638-0.217-1.304c0.277-0.539,0.453-0.802,1.033-0.999
		C199.427,95.133,204.194,95.365,207.482,97.061z M187.602,104.997c-0.482,1.035-0.373,2.198-0.224,3.306
		c0.645,0.967,1.299,1.213,2.39,1.521c0.653,0.066,0.653,0.066,1.334,0.06c0.259,0.002,0.518,0.004,0.785,0.006
		c0.277,0,0.554,0,0.84-0.001c0.291,0.001,0.581,0.002,0.872,0.003c0.608,0.002,1.216,0.002,1.824,0
		c0.775-0.001,1.549,0.002,2.323,0.007c0.6,0.003,1.2,0.003,1.801,0.003c0.423,0,0.846,0.003,1.269,0.006
		c2.159-0.011,2.159-0.011,4.165-0.737c0.643-0.65,0.687-1.217,0.716-2.096c-0.004-0.374-0.012-0.749-0.023-1.123
		c-0.003-0.192-0.006-0.384-0.009-0.582c-0.008-0.472-0.019-0.943-0.032-1.415c-2.038-0.015-4.077-0.027-6.115-0.034
		c-0.947-0.003-1.893-0.008-2.84-0.015c-0.914-0.007-1.829-0.011-2.743-0.013c-0.348-0.001-0.696-0.004-1.044-0.007
		C190.055,103.77,190.055,103.77,187.602,104.997z"/>
	<path fill="#FFFFFF" d="M43.105,95.612c0.283-0.001,0.566-0.001,0.858-0.002c0.594-0.001,1.189,0,1.783,0.003
		c0.753,0.004,1.505,0.002,2.258-0.002c0.73-0.003,1.461-0.001,2.191,0.001c0.265-0.001,0.531-0.003,0.804-0.004
		c2.195,0.018,4.927,0.074,6.64,1.612c1.435,1.498,1.356,2.779,1.372,4.767c0.009,0.389,0.009,0.389,0.019,0.786
		c0.002,0.249,0.004,0.498,0.006,0.755c0.003,0.228,0.006,0.456,0.01,0.691c-0.134,0.798-0.319,0.998-0.971,1.476
		c-0.645,0.126-1.279,0.11-1.934,0.099c-0.195,0-0.39,0-0.591,0c-0.644-0.001-1.289-0.007-1.933-0.014
		c-0.447-0.002-0.894-0.003-1.341-0.004c-1.176-0.003-2.352-0.012-3.528-0.021c-1.2-0.009-2.401-0.013-3.601-0.017
		c-2.355-0.009-4.71-0.024-7.065-0.042c0.013,0.453,0.032,0.906,0.054,1.358c0.01,0.252,0.02,0.504,0.031,0.764
		c0.153,0.814,0.361,1.067,1.002,1.572c1.956,1.032,4.572,0.716,6.73,0.756c0.452,0.009,0.904,0.02,1.356,0.031
		c0.268,0.005,0.536,0.011,0.811,0.017c0.665,0.066,0.665,0.066,1.317,0.5c0.19,0.503,0.19,0.503,0.217,1.087
		c-0.477,0.999-0.477,0.999-1.087,1.304c-0.567,0.027-1.127,0.041-1.694,0.044c-0.171,0.001-0.341,0.002-0.517,0.004
		c-0.363,0.002-0.726,0.003-1.09,0.004c-0.545,0.002-1.09,0.009-1.635,0.016c-2.844,0.019-5.88,0.003-8.103-2.024
		c-0.759-0.878-1.11-1.742-1.125-2.9c-0.003-0.19-0.006-0.38-0.008-0.576c-0.002-0.205-0.003-0.41-0.005-0.621
		c-0.002-0.212-0.004-0.424-0.005-0.642c-0.003-0.449-0.005-0.898-0.007-1.348c-0.004-0.684-0.013-1.367-0.023-2.05
		c-0.002-0.437-0.004-0.874-0.006-1.311c-0.004-0.203-0.008-0.406-0.012-0.615c0.005-1.518,0.317-2.724,1.387-3.842
		C37.936,95.747,40.465,95.599,43.105,95.612z M38.733,99.393c-0.934,1.065-0.934,1.065-0.652,3.694c5.665,0,11.331,0,17.168,0
		c0.224-2.446,0.224-2.446-0.652-3.694c-1.377-0.863-2.838-0.746-4.421-0.739c-0.279-0.001-0.558-0.001-0.845-0.002
		c-0.588-0.001-1.176,0-1.764,0.003c-0.75,0.004-1.501,0.002-2.251-0.002c-0.721-0.003-1.441-0.001-2.162,0.001
		c-0.268-0.001-0.536-0.003-0.812-0.004C40.983,98.662,39.91,98.681,38.733,99.393z"/>
	<path fill="#FFFFFF" d="M74.142,95.658c0.259-0.003,0.518-0.005,0.785-0.008c0.249,0,0.499-0.001,0.756-0.001
		c0.224-0.001,0.447-0.002,0.677-0.003c0.66,0.056,1.12,0.182,1.707,0.487c0.435,0.652,0.435,0.652,0.421,1.304
		c-0.204,0.652-0.204,0.652-0.65,1.013c-0.81,0.367-1.533,0.383-2.405,0.379c-0.253,0.004-0.253,0.004-0.511,0.007
		c-0.537,0.007-1.073,0.011-1.61,0.013c-0.706,0.003-1.411,0.011-2.117,0.02c-0.16-0.001-0.32-0.001-0.484-0.002
		c-1.101,0.016-1.88,0.227-2.858,0.742c-0.287,0.575-0.238,1.017-0.231,1.657c0.002,0.218,0.004,0.436,0.006,0.66
		c0.003,0.168,0.005,0.335,0.008,0.508c1.547,0.404,2.979,0.502,4.575,0.509c0.247,0.003,0.493,0.006,0.748,0.01
		c0.784,0.01,1.568,0.018,2.352,0.024c1.031,0.009,2.063,0.021,3.094,0.034c0.349,0.002,0.349,0.002,0.704,0.003
		c2.331,0.03,4.836,0.163,6.782,1.592c0.809,0.961,0.757,1.94,0.747,3.138c0.004,0.181,0.009,0.362,0.013,0.549
		c-0.001,1.192-0.163,1.905-0.978,2.833c-0.476,0.35-0.476,0.35-0.992,0.598c-0.166,0.084-0.332,0.168-0.503,0.255
		c-2.252,0.778-4.58,0.74-6.932,0.742c-0.37,0.001-0.739,0.003-1.109,0.004c-0.77,0.003-1.54,0.003-2.31,0.003
		c-0.986,0-1.972,0.006-2.959,0.013c-0.761,0.005-1.522,0.006-2.284,0.005c-0.364,0.001-0.728,0.002-1.091,0.006
		c-0.507,0.004-1.014,0.003-1.521,0c-0.15,0.002-0.299,0.005-0.453,0.007c-0.717-0.009-1.094-0.077-1.679-0.505
		c-0.334-0.477-0.334-0.477-0.32-1.265c0.204-0.733,0.204-0.733,0.856-1.168c0.692-0.058,0.692-0.058,1.559-0.062
		c0.158-0.001,0.316-0.003,0.479-0.005c0.343-0.003,0.687-0.005,1.03-0.006c0.545-0.002,1.089-0.006,1.634-0.011
		c1.158-0.01,2.316-0.018,3.475-0.024c1.338-0.008,2.676-0.017,4.014-0.03c0.534-0.004,1.068-0.006,1.602-0.008
		c1.609-0.011,3.12-0.059,4.679-0.506c0-0.932,0-1.865,0-2.825c-1.643-0.381-3.17-0.498-4.853-0.502
		c-0.515-0.005-1.03-0.011-1.545-0.017c-0.801-0.006-1.602-0.011-2.403-0.016c-0.78-0.005-1.561-0.013-2.341-0.022
		c-0.235,0-0.471,0-0.713,0c-2.18-0.028-4.976-0.205-6.617-1.834c-0.959-1.542-0.91-3.373-0.532-5.116
		c0.536-1.314,1.68-1.918,2.923-2.49C69.031,95.474,71.758,95.659,74.142,95.658z"/>
	<path fill="#FFFFFF" d="M94.474,91.257c0.164,0,0.327,0.001,0.496,0.001c0.654,0.128,0.915,0.231,1.351,0.746
		c0.108,0.668,0.081,1.322,0.054,1.997c-0.004,0.184-0.008,0.367-0.012,0.556c-0.01,0.453-0.026,0.906-0.042,1.359
		c0.2-0.003,0.399-0.007,0.605-0.01c0.742-0.011,1.484-0.019,2.226-0.025c0.321-0.003,0.642-0.008,0.962-0.013
		c0.462-0.008,0.923-0.012,1.385-0.014c0.417-0.005,0.417-0.005,0.841-0.01c0.76,0.078,1.052,0.195,1.586,0.726
		c0.204,0.407,0.204,0.407,0.217,0.869c-0.249,0.488-0.48,0.915-0.869,1.304c-0.516,0.019-1.026,0.025-1.542,0.021
		c-0.231,0-0.231,0-0.467-0.001c-0.494-0.001-0.988-0.004-1.481-0.007c-0.334-0.001-0.668-0.002-1.002-0.003
		c-0.82-0.002-1.641-0.006-2.461-0.011c0.002,0.167,0.005,0.335,0.007,0.507c0.022,1.576,0.038,3.153,0.049,4.729
		c0.006,0.811,0.013,1.621,0.026,2.431c0.012,0.782,0.018,1.564,0.021,2.346c0.002,0.299,0.006,0.597,0.012,0.895
		c0.008,0.418,0.008,0.836,0.008,1.253c0.002,0.238,0.005,0.476,0.007,0.721c-0.131,0.59-0.131,0.59-0.65,0.995
		c-0.607,0.264-0.923,0.306-1.573,0.219c-0.164-0.018-0.328-0.037-0.497-0.056c-0.561-0.166-0.751-0.319-1.105-0.786
		c-0.078-0.582-0.078-0.582-0.074-1.291c0-0.265,0-0.531,0-0.804c0.003-0.287,0.007-0.573,0.01-0.868
		c0.001-0.296,0.002-0.593,0.003-0.889c0.002-0.779,0.009-1.558,0.016-2.338c0.007-0.795,0.01-1.591,0.013-2.386
		c0.007-1.56,0.018-3.12,0.032-4.68c-0.22,0.011-0.22,0.011-0.445,0.023c-0.194,0.006-0.388,0.012-0.587,0.018
		c-0.287,0.011-0.287,0.011-0.581,0.023c-0.672-0.076-0.955-0.24-1.43-0.716c-0.109-0.761-0.109-0.761,0-1.521
		c0.475-0.476,0.758-0.639,1.43-0.716c0.192,0.008,0.383,0.015,0.581,0.023c0.194,0.006,0.388,0.012,0.587,0.018
		c0.147,0.008,0.294,0.015,0.445,0.023c-0.01-0.257-0.02-0.513-0.031-0.778c-0.008-0.338-0.016-0.677-0.024-1.015
		c-0.007-0.169-0.015-0.338-0.022-0.512c-0.014-0.816-0.019-1.251,0.453-1.937C93.552,91.316,93.826,91.241,94.474,91.257z"/>
	<path fill="#FFFFFF" d="M118.841,95.631c0.162-0.004,0.324-0.008,0.491-0.012c1.038,0.001,1.757,0.171,2.633,0.731
		c0.231,0.516,0.231,0.516,0.217,1.087c-0.477,0.999-0.477,0.999-1.087,1.304c-0.371,0.028-0.743,0.044-1.115,0.053
		c-0.338,0.011-0.338,0.011-0.682,0.022c-0.471,0.013-0.943,0.026-1.414,0.037c-2.762,0.043-2.762,0.043-5.047,1.409
		c-0.214,0.641-0.247,1.065-0.252,1.733c-0.003,0.33-0.003,0.33-0.007,0.666c-0.002,0.237-0.003,0.474-0.005,0.718
		c-0.006,0.5-0.012,1-0.019,1.5c-0.009,0.79-0.017,1.58-0.023,2.369c-0.006,0.761-0.016,1.522-0.027,2.283
		c-0.001,0.237-0.001,0.474-0.002,0.718c-0.004,0.22-0.007,0.439-0.011,0.666c-0.002,0.193-0.004,0.387-0.005,0.586
		c-0.102,0.595-0.268,0.78-0.737,1.147c-0.657,0.329-1.231,0.255-1.956,0.217c-0.6-0.221-0.8-0.296-1.087-0.869
		c-0.025-0.37-0.037-0.741-0.042-1.112c-0.003-0.232-0.007-0.465-0.011-0.704c-0.01-1.068-0.019-2.136-0.024-3.204
		c-0.004-0.562-0.01-1.124-0.018-1.686c-0.012-0.812-0.017-1.623-0.02-2.435c-0.005-0.249-0.01-0.498-0.015-0.754
		c0.005-1.741,0.301-3.319,1.58-4.594C112.481,95.642,115.999,95.669,118.841,95.631z"/>
	<path fill="#FFFFFF" d="M86.736,33.024c1.152,0.766,1.994,1.811,2.414,3.13c0.189,1.596,0.134,3.043-0.869,4.346
		c-1.209,1.299-2.289,1.94-4.075,2.051c-1.457-0.037-2.693-0.557-3.725-1.595c-0.953-1.205-1.432-2.353-1.381-3.917
		c0.177-1.494,0.873-2.731,2.009-3.711C82.886,32.175,84.844,32.082,86.736,33.024z"/>
</g>
<g>
</g>
<g>
</g>
<g>
</g>
<g>
</g>
<g>
</g>
<g>
</g>
</svg>
