<svg xmlns="http://www.w3.org/2000/svg" width="50" height="50" viewBox="0 0 50 50" fill="none">
  <path d="M24.9537 22.1805C26.6362 22.1805 28.0001 20.8166 28.0001 19.1341C28.0001 17.4516 26.6362 16.0876 24.9537 16.0876C23.2712 16.0876 21.9072 17.4516 21.9072 19.1341C21.9072 20.8166 23.2712 22.1805 24.9537 22.1805Z" fill="white" fill-opacity="0.85"/>
  <path d="M24.9538 3.90186C16.5552 3.90186 9.72168 10.4374 9.72168 18.4676C9.72168 22.2918 11.4648 27.3775 14.9025 33.5836C17.6633 38.5664 20.8573 43.0723 22.5186 45.3143C22.7993 45.6973 23.1663 46.0089 23.5899 46.2236C24.0135 46.4384 24.4818 46.5503 24.9567 46.5503C25.4316 46.5503 25.8998 46.4384 26.3234 46.2236C26.747 46.0089 27.1141 45.6973 27.3948 45.3143C29.0532 43.0723 32.25 38.5664 35.0109 33.5836C38.4429 27.3794 40.186 22.2937 40.186 18.4676C40.186 10.4374 33.3525 3.90186 24.9538 3.90186ZM24.9538 25.2269C23.7488 25.2269 22.5708 24.8695 21.5688 24.2C20.5669 23.5305 19.7859 22.579 19.3248 21.4656C18.8636 20.3523 18.7429 19.1272 18.978 17.9453C19.2131 16.7634 19.7934 15.6778 20.6455 14.8257C21.4976 13.9736 22.5833 13.3933 23.7652 13.1582C24.9471 12.9231 26.1721 13.0438 27.2855 13.5049C28.3988 13.9661 29.3504 14.747 30.0199 15.749C30.6894 16.751 31.0467 17.929 31.0467 19.134C31.0449 20.7494 30.4024 22.2981 29.2602 23.4404C28.1179 24.5826 26.5692 25.2251 24.9538 25.2269Z" fill="white" fill-opacity="0.85"/>
</svg>